<svg xmlns="http://www.w3.org/2000/svg" width="500.605" height="101.012" viewBox="0 0 500.605 101.012">
  <g id="secondary_2_" data-name="secondary (2)" transform="translate(-34.434 -43.436)">
    <path id="Trazado_30" data-name="Trazado 30" d="M165.859,239.159a29.855,29.855,0,0,1-29.811,29.811H98.62l8.01-8.614h29.4a21.218,21.218,0,0,0,9.019-40.419l-.573-.259,6.1-6.548.321.184A29.964,29.964,0,0,1,165.859,239.159Z" transform="translate(-47.547 -125.705)" fill="#fff"/>
    <path id="Trazado_31" data-name="Trazado 31" d="M100.142,58.146l-6.727,7.238-.192-.868a15.136,15.136,0,0,0-1.942-4.726,15.655,15.655,0,0,0-13.418-7.518H43.052v67.257l-8.612,9.262V51.9a8.262,8.262,0,0,1,8.249-8.254H77.876a24.484,24.484,0,0,1,22.149,14.211Z" transform="translate(-0.005 -0.159)" fill="#fff"/>
    <path id="Trazado_32" data-name="Trazado 32" d="M128.971,47.535V64.7a3.3,3.3,0,0,1-.018.358,4.308,4.308,0,0,1-4.3,3.948,1.65,1.65,0,0,1-.259-.013,4.184,4.184,0,0,1-2.439-.925l-.477-.428a4.319,4.319,0,0,1-1.128-2.8l-.013-6.123L54.751,129.239,41.694,143.284a4.314,4.314,0,0,1-6.092-6.1l79.171-85.121h-7.282a1.441,1.441,0,0,1-.314-.039,4.251,4.251,0,0,1-3.728-3.712,2.359,2.359,0,0,0-.036-.238v-.065a.628.628,0,0,0,0-.1,1.624,1.624,0,0,1,0-.163v-.163a.747.747,0,0,0,0-.111l.013-.117a.835.835,0,0,1,.018-.111,4.293,4.293,0,0,1,3.888-3.785.607.607,0,0,1,.137-.018,2.02,2.02,0,0,1,.246,0h17.125a.517.517,0,0,0,.088,0h.2l.08.016a.954.954,0,0,1,.316.052,2.636,2.636,0,0,1,.448.111.547.547,0,0,1,.13.036,3.778,3.778,0,0,1,.5.22c.036.018.1.054.158.093h.1l.1.1a3.92,3.92,0,0,1,.371.259c.06.036.153.117.246.192l.041.036a.7.7,0,0,1,.122.145.64.64,0,0,1,.122.13,1.758,1.758,0,0,1,.218.259,3.888,3.888,0,0,1,.443.69l.016.023.065.07v.111a3.614,3.614,0,0,1,.163.448l.049.052v.153a2.873,2.873,0,0,1,.093.518.542.542,0,0,1,0,.093.739.739,0,0,1,.054.288Z" transform="translate(0 0)" fill="#fff"/>
    <path id="Trazado_33" data-name="Trazado 33" d="M126.6,107.21a4.272,4.272,0,0,1-1.141,3.093l-24.992,26.892a4.282,4.282,0,0,1-3,1.382h-.176a4.272,4.272,0,0,1-2.916-1.143h0a4.319,4.319,0,0,1-.259-6.089l25-26.9a4.311,4.311,0,0,1,7.471,2.75Z" transform="translate(-43.372 -44.173)" fill="#fff"/>
    <path id="Trazado_34" data-name="Trazado 34" d="M532.543,161.24a10.11,10.11,0,0,1,3.821,3.982,11.71,11.71,0,0,1,1.332,5.625,11.124,11.124,0,0,1-.858,4.355,12.409,12.409,0,0,1-2.333,3.642,11.287,11.287,0,0,1,4.562,9.179,10.9,10.9,0,0,1-1.48,5.568,11.339,11.339,0,0,1-3.977,4.034,10.422,10.422,0,0,1-5.509,1.522H515.19V159.7h11.549A11.531,11.531,0,0,1,532.543,161.24Zm-12.142,3.79v11.728h6.338a5.465,5.465,0,0,0,4.088-1.716,5.835,5.835,0,0,0,1.659-4.207,5.674,5.674,0,0,0-1.63-4.148,5.532,5.532,0,0,0-4.117-1.659Zm0,17.057v11.728h7.7a5.5,5.5,0,0,0,4.085-1.688,5.646,5.646,0,0,0,1.659-4.117,5.822,5.822,0,0,0-1.659-4.2,5.444,5.444,0,0,0-4.085-1.719Z" transform="translate(-356.13 -86.125)" fill="#10212b"/>
    <path id="Trazado_35" data-name="Trazado 35" d="M650.013,227.577v-4.5a14.924,14.924,0,0,1-4.384,3.5,11.211,11.211,0,0,1-5.273,1.3,14.845,14.845,0,0,1-5.773-1.125,14.652,14.652,0,0,1-4.77-3.2,14.258,14.258,0,0,1-3.227-4.765,14.864,14.864,0,0,1,13.77-20.7,12.5,12.5,0,0,1,9.656,4.5v-3.909h5.33v28.9ZM636.6,204.091a9.2,9.2,0,0,0-5.151,5.153,9.8,9.8,0,0,0-.741,3.761,9.571,9.571,0,0,0,.741,3.73,9.242,9.242,0,0,0,5.151,5.125,9.8,9.8,0,0,0,3.761.741,9.591,9.591,0,0,0,3.733-.741,9.306,9.306,0,0,0,5.122-5.125,9.617,9.617,0,0,0,.741-3.73,9.851,9.851,0,0,0-.741-3.761,9.4,9.4,0,0,0-2.043-3.111,9.493,9.493,0,0,0-3.08-2.045,9.627,9.627,0,0,0-3.733-.739A9.851,9.851,0,0,0,636.6,204.091Z" transform="translate(-437.764 -114.555)" fill="#10212b"/>
    <path id="Trazado_36" data-name="Trazado 36" d="M776.977,202.625a6.222,6.222,0,0,0-2.546-.651,5.1,5.1,0,0,0-3.909,1.659,5.8,5.8,0,0,0-1.659,4.085v18.836h-5.094V207.719a11.028,11.028,0,0,1,1.628-5.864,11.206,11.206,0,0,1,4.474-4.148,10.534,10.534,0,0,1,4.56-1.008,9.985,9.985,0,0,1,3.73.71,14.561,14.561,0,0,1,3.733,2.312Z" transform="translate(-540.27 -113.533)" fill="#10212b"/>
    <path id="Trazado_37" data-name="Trazado 37" d="M859.157,175.033v24.285h-5.034V175.033H849.68V169.7h4.443V159.93h5.034V169.7H863.6v5.33Z" transform="translate(-603.91 -86.296)" fill="#10212b"/>
    <path id="Trazado_38" data-name="Trazado 38" d="M920.455,214.843a5.319,5.319,0,0,0,1.037,2.96,11.181,11.181,0,0,0,2.4,2.592,9.12,9.12,0,0,0,5.8,1.957q5.273,0,8.588-5.094l4.5,2.665a16.827,16.827,0,0,1-5.687,5.745,14.18,14.18,0,0,1-7.4,2.025,14.569,14.569,0,0,1-5.745-1.156,15.058,15.058,0,0,1-8.036-8.023,14.579,14.579,0,0,1-1.154-5.747,14.773,14.773,0,0,1,1.154-5.773,14.924,14.924,0,0,1,3.227-4.829,13.864,13.864,0,0,1,4.77-3.2,15.35,15.35,0,0,1,11.549,0,13.882,13.882,0,0,1,4.767,3.2,14.515,14.515,0,0,1,4.384,10.426,15.08,15.08,0,0,1-.179,2.25Zm4.666-11.077a9.26,9.26,0,0,0-3.406,2.815,6.186,6.186,0,0,0-1.273,3.7H938.93a6.17,6.17,0,0,0-1.275-3.7,9.229,9.229,0,0,0-3.391-2.815,10.3,10.3,0,0,0-9.122,0Z" transform="translate(-652.119 -114.378)" fill="#10212b"/>
    <path id="Trazado_39" data-name="Trazado 39" d="M1063.717,202.625a6.221,6.221,0,0,0-2.546-.651,5.1,5.1,0,0,0-3.91,1.659,5.8,5.8,0,0,0-1.659,4.085v18.836h-5.094V207.719a11.031,11.031,0,0,1,1.631-5.864,11.165,11.165,0,0,1,4.472-4.148,10.536,10.536,0,0,1,4.56-1.008,9.985,9.985,0,0,1,3.73.71,14.56,14.56,0,0,1,3.733,2.312Z" transform="translate(-752.678 -113.533)" fill="#10212b"/>
    <path id="Trazado_40" data-name="Trazado 40" d="M1150.355,226.348a11.693,11.693,0,0,1-4.085-3.466v16.643H1141V198.007h5.273v4.148a14.3,14.3,0,0,1,4.381-3.614,11.147,11.147,0,0,1,5.332-1.361,14.829,14.829,0,0,1,5.773,1.154,13.848,13.848,0,0,1,4.77,3.287,15.621,15.621,0,0,1,3.227,4.889,14.927,14.927,0,0,1,1.154,5.833,14.714,14.714,0,0,1-1.154,5.8,15.723,15.723,0,0,1-3.227,4.858,14.808,14.808,0,0,1-10.543,4.441A12.856,12.856,0,0,1,1150.355,226.348Zm1.9-23.04a8.994,8.994,0,0,0-3.079,2.1,10.527,10.527,0,0,0-2.074,3.168,9.5,9.5,0,0,0-.778,3.761,9.283,9.283,0,0,0,.778,3.73,10.588,10.588,0,0,0,2.074,3.139,9.444,9.444,0,0,0,13.622,0,10.11,10.11,0,0,0,2.043-3.139,9.579,9.579,0,0,0,.741-3.73,9.805,9.805,0,0,0-.741-3.761,10.067,10.067,0,0,0-2.043-3.168,8.993,8.993,0,0,0-3.079-2.1,9.763,9.763,0,0,0-7.463,0Z" transform="translate(-819.712 -113.889)" fill="#fff"/>
    <path id="Trazado_41" data-name="Trazado 41" d="M1276.93,199.317V159.93h4.739v39.387Z" transform="translate(-920.405 -86.296)" fill="#fff"/>
    <path id="Trazado_42" data-name="Trazado 42" d="M1340.24,227.569v-4.5a14.855,14.855,0,0,1-4.384,3.5,11.192,11.192,0,0,1-5.27,1.3,14.855,14.855,0,0,1-5.775-1.125,14.663,14.663,0,0,1-4.767-3.2,14.252,14.252,0,0,1-3.228-4.767,14.864,14.864,0,0,1,13.771-20.7,12.49,12.49,0,0,1,9.654,4.5v-3.907h5.332v28.9Zm-13.415-23.486a9.21,9.21,0,0,0-5.143,5.153,9.849,9.849,0,0,0-.739,3.761,9.612,9.612,0,0,0,.739,3.73,9.255,9.255,0,0,0,5.154,5.125,9.8,9.8,0,0,0,3.761.741,9.55,9.55,0,0,0,9.592-9.591,9.85,9.85,0,0,0-.739-3.761,9.254,9.254,0,0,0-5.125-5.153,9.606,9.606,0,0,0-3.73-.739A9.849,9.849,0,0,0,1326.825,204.083Z" transform="translate(-949.066 -114.548)" fill="#fff"/>
    <path id="Trazado_43" data-name="Trazado 43" d="M1461.195,175.033v24.285h-5.034V175.033h-4.441V169.7h4.441V159.93h5.034V169.7h4.443v5.33Z" transform="translate(-1049.884 -86.296)" fill="#fff"/>
    <path id="Trazado_44" data-name="Trazado 44" d="M1533.751,174.505v24.64h-4.975v-24.64H1526v-4.975h2.852a9.683,9.683,0,0,1,1.628-5.094,10.237,10.237,0,0,1,4-3.494,12.006,12.006,0,0,1,5.443-1.244v5.094a5.936,5.936,0,0,0-4.176,1.244,4.636,4.636,0,0,0-1.815,3.494h5.98v4.975Z" transform="translate(-1104.908 -86.124)" fill="#fff"/>
    <path id="Trazado_45" data-name="Trazado 45" d="M1595.759,225.844a15.455,15.455,0,0,1-8.057-8.054,14.293,14.293,0,0,1-1.182-5.747,14.856,14.856,0,0,1,1.182-5.864,15.266,15.266,0,0,1,3.259-4.855,14.988,14.988,0,0,1,4.8-3.227,14.56,14.56,0,0,1,5.745-1.156,15.154,15.154,0,0,1,5.864,1.156,14.758,14.758,0,0,1,8.085,8.083,15.157,15.157,0,0,1,1.154,5.864,14.579,14.579,0,0,1-1.154,5.747,15.007,15.007,0,0,1-3.227,4.8,15.188,15.188,0,0,1-4.858,3.259,14.805,14.805,0,0,1-5.864,1.185A14.228,14.228,0,0,1,1595.759,225.844Zm-1.066-20.79a9.873,9.873,0,0,0-2.134,3.2,9.713,9.713,0,0,0-.778,3.79,9.294,9.294,0,0,0,.778,3.733,10.2,10.2,0,0,0,5.231,5.27,9.074,9.074,0,0,0,3.7.778,9.7,9.7,0,0,0,3.79-.778,9.192,9.192,0,0,0,3.139-2.131,10.629,10.629,0,0,0,2.074-3.139,9.285,9.285,0,0,0,.777-3.733,9.708,9.708,0,0,0-.777-3.79,10.426,10.426,0,0,0-2.074-3.2,8.977,8.977,0,0,0-3.111-2.1,10,10,0,0,0-3.821-.741A9.288,9.288,0,0,0,1594.693,205.054Z" transform="translate(-1149.739 -113.711)" fill="#fff"/>
    <path id="Trazado_46" data-name="Trazado 46" d="M1736.356,202.625a6.253,6.253,0,0,0-2.548-.651,5.1,5.1,0,0,0-3.909,1.659,5.812,5.812,0,0,0-1.657,4.085v18.836h-5.094V207.719a11.026,11.026,0,0,1,1.628-5.864,11.2,11.2,0,0,1,4.472-4.148,10.534,10.534,0,0,1,4.56-1.008,10,10,0,0,1,3.733.71,14.5,14.5,0,0,1,3.73,2.312Z" transform="translate(-1250.95 -113.533)" fill="#fff"/>
    <path id="Trazado_47" data-name="Trazado 47" d="M1847.678,227.235v-18.54a5.5,5.5,0,0,0-1.688-4.085,5.648,5.648,0,0,0-4.117-1.659,5.871,5.871,0,0,0-4.147,1.659,5.256,5.256,0,0,0-1.719,4.028v18.6h-5.387v-18.6a5.231,5.231,0,0,0-1.659-4.028,5.963,5.963,0,0,0-4.2-1.659,5.476,5.476,0,0,0-4.029,1.659,5.745,5.745,0,0,0-1.776,4.2v18.421h-5.332v-28.9h5.332v2.19a7.971,7.971,0,0,1,2.634-2.074,6.945,6.945,0,0,1,3.17-.83,10.9,10.9,0,0,1,4.767,1.037,3.917,3.917,0,0,0,7.552,0,11.089,11.089,0,0,1,4.8-1.037,11.209,11.209,0,0,1,4.324.83,10.857,10.857,0,0,1,3.554,2.38,11.12,11.12,0,0,1,2.4,3.585,10.955,10.955,0,0,1,.858,4.293v18.54Z" transform="translate(-1317.969 -114.213)" fill="#fff"/>
  </g>
</svg>
